<svg width="82" height="24" viewBox="0 0 82 24" fill="none" xmlns="http://www.w3.org/2000/svg">
<path d="M28.24 15.624H34.64V14.584H34.32C30.608 14.584 29.008 13.32 29.008 10.408C29.008 9.032 29.264 6.648 29.568 5.176L34.496 5.336C34.304 6.616 34.16 8.088 34.16 9.128C34.16 10.472 34.416 10.712 36.096 10.712C39.248 10.712 40.88 10.632 44.752 10.36L44.912 14.104C43.136 14.28 41.232 14.408 39.28 14.488V15.624H45.68V19.224H28.24V15.624ZM58.2419 4.776H62.5619V9.72H63.6819V13.72H62.5619V19.624H58.2419V4.776ZM46.2419 13.672V10.232H52.7379C52.8659 9.816 52.9299 9.432 52.9299 9.144C52.9299 8.728 52.6739 8.536 52.1299 8.536C51.0739 8.536 50.3859 8.568 46.7219 8.776L46.5619 5.4C48.4339 5.176 50.7379 5.048 52.4819 5.048C56.1299 5.048 57.2499 5.752 57.2499 8.056C57.2499 8.712 57.1699 9.448 56.9939 10.232H57.4099V13.672H51.0259C50.9779 13.976 50.9619 14.264 50.9619 14.536C50.9619 15.272 51.1379 15.448 51.9059 15.448C53.0419 15.448 54.5779 15.336 57.5699 15.08L57.7299 18.472C55.6019 18.824 53.3459 19.032 51.4899 19.032C47.9859 19.032 46.5619 18.088 46.5619 15.784C46.5619 15.112 46.6259 14.376 46.7539 13.672H46.2419ZM76.1638 4.776H80.4838V9.72H81.6038V13.72H80.4838V19.624H76.1638V4.776ZM64.1638 13.672V10.232H70.6598C70.7878 9.816 70.8518 9.432 70.8518 9.144C70.8518 8.728 70.5958 8.536 70.0518 8.536C68.9958 8.536 68.3078 8.568 64.6438 8.776L64.4838 5.4C66.3558 5.176 68.6598 5.048 70.4038 5.048C74.0518 5.048 75.1718 5.752 75.1718 8.056C75.1718 8.712 75.0918 9.448 74.9158 10.232H75.3318V13.672H68.9478C68.8998 13.976 68.8838 14.264 68.8838 14.536C68.8838 15.272 69.0598 15.448 69.8278 15.448C70.9638 15.448 72.4998 15.336 75.4918 15.08L75.6518 18.472C73.5238 18.824 71.2678 19.032 69.4118 19.032C65.9078 19.032 64.4838 18.088 64.4838 15.784C64.4838 15.112 64.5478 14.376 64.6758 13.672H64.1638Z" fill="black"/>
<path d="M12.4047 3.02096C13.3699 3.14866 14.0911 3.97164 14.0911 4.94523V6.32812C15.8 6.9321 17.1543 8.28647 17.7583 9.9953H19.1412C20.1148 9.9953 20.9378 10.7166 21.0655 11.6818C21.0934 11.893 21.0934 12.107 21.0655 12.3183C20.9378 13.2834 20.1148 14.0047 19.1412 14.0047H17.7583C17.1543 15.7135 15.8 17.0679 14.0911 17.6719V19.0548C14.0911 20.0284 13.3699 20.8513 12.4047 20.979C12.1934 21.007 11.9794 21.007 11.7682 20.979C10.803 20.8513 10.0817 20.0284 10.0817 19.0548V17.6719C8.3729 17.0679 7.01853 15.7135 6.41454 14.0047H5.03166C4.05806 14.0047 3.23509 13.2834 3.10739 12.3183C3.07944 12.107 3.07944 11.893 3.10739 11.6818C3.23509 10.7166 4.05807 9.9953 5.03167 9.9953H6.41454C7.01853 8.28647 8.3729 6.9321 10.0817 6.32812V4.94525C10.0817 3.97164 10.803 3.14866 11.7682 3.02096C11.9794 2.99301 12.1934 2.99301 12.4047 3.02096Z" stroke="#161722" stroke-width="1.5" stroke-linecap="round" stroke-linejoin="round"/>
<path d="M9.68896 12C9.68896 10.6193 10.8203 9.5 12.2159 9.5C13.6115 9.5 14.7429 10.6193 14.7429 12C14.7429 13.3807 13.6115 14.5 12.2159 14.5C10.8203 14.5 9.68896 13.3807 9.68896 12Z" stroke="#0095FF" stroke-width="1.5"/>
</svg>
