<svg width="20" height="20" viewBox="0 0 20 20" fill="none" xmlns="http://www.w3.org/2000/svg">
<path d="M17.1484 9.45313L3.95311 2.06251C3.84196 2.0011 3.71474 1.97501 3.5884 1.98771C3.46205 2.0004 3.34257 2.05128 3.24586 2.13357C3.14915 2.21586 3.07979 2.32565 3.04704 2.44834C3.01428 2.57102 3.01966 2.70077 3.06248 2.82032L5.54686 9.78907C5.60159 9.92437 5.60159 10.0756 5.54686 10.2109L3.06248 17.1797C3.01966 17.2992 3.01428 17.429 3.04704 17.5517C3.07979 17.6744 3.14915 17.7842 3.24586 17.8664C3.34257 17.9487 3.46205 17.9996 3.5884 18.0123C3.71474 18.025 3.84196 17.9989 3.95311 17.9375L17.1484 10.5469C17.2461 10.4928 17.3275 10.4136 17.3842 10.3174C17.4409 10.2213 17.4708 10.1116 17.4708 10C17.4708 9.88836 17.4409 9.77876 17.3842 9.68258C17.3275 9.58641 17.2461 9.50718 17.1484 9.45313V9.45313Z" stroke="#FFFFFF" stroke-width="2" stroke-linecap="round" stroke-linejoin="round"/>
<path d="M5.625 10H10.625" stroke="#FFFFFF" stroke-width="2" stroke-linecap="round" stroke-linejoin="round"/>
</svg>
