<svg width="32" height="32" viewBox="0 0 32 32" fill="none" xmlns="http://www.w3.org/2000/svg">
<path d="M10 25C11.933 25 13.5 23.433 13.5 21.5C13.5 19.567 11.933 18 10 18C8.067 18 6.5 19.567 6.5 21.5C6.5 23.433 8.067 25 10 25Z" stroke="#7B7B7B" stroke-width="2" stroke-linecap="round" stroke-linejoin="round"/>
<path d="M4 28C4.6986 27.0685 5.60448 26.3125 6.6459 25.7918C7.68731 25.2711 8.83566 25 10 25C11.1643 25 12.3127 25.2711 13.3541 25.7918C14.3955 26.3125 15.3014 27.0685 16 28" stroke="#7B7B7B" stroke-width="2" stroke-linecap="round" stroke-linejoin="round"/>
<path d="M10 11.5C11.933 11.5 13.5 9.933 13.5 8C13.5 6.067 11.933 4.5 10 4.5C8.067 4.5 6.5 6.067 6.5 8C6.5 9.933 8.067 11.5 10 11.5Z" stroke="#7B7B7B" stroke-width="2" stroke-linecap="round" stroke-linejoin="round"/>
<path d="M4 14.5C4.6986 13.5685 5.60448 12.8125 6.6459 12.2918C7.68731 11.7711 8.83566 11.5 10 11.5C11.1643 11.5 12.3127 11.7711 13.3541 12.2918C14.3955 12.8125 15.3014 13.5685 16 14.5" stroke="#7B7B7B" stroke-width="2" stroke-linecap="round" stroke-linejoin="round"/>
<path d="M22 25C23.933 25 25.5 23.433 25.5 21.5C25.5 19.567 23.933 18 22 18C20.067 18 18.5 19.567 18.5 21.5C18.5 23.433 20.067 25 22 25Z" stroke="#7B7B7B" stroke-width="2" stroke-linecap="round" stroke-linejoin="round"/>
<path d="M16 28C16.6986 27.0685 17.6045 26.3125 18.6459 25.7918C19.6873 25.2711 20.8357 25 22 25C23.1643 25 24.3127 25.2711 25.3541 25.7918C26.3955 26.3125 27.3014 27.0685 28 28" stroke="#7B7B7B" stroke-width="2" stroke-linecap="round" stroke-linejoin="round"/>
<path d="M22 11.5C23.933 11.5 25.5 9.933 25.5 8C25.5 6.067 23.933 4.5 22 4.5C20.067 4.5 18.5 6.067 18.5 8C18.5 9.933 20.067 11.5 22 11.5Z" stroke="#7B7B7B" stroke-width="2" stroke-linecap="round" stroke-linejoin="round"/>
<path d="M16 14.5C16.6986 13.5685 17.6045 12.8125 18.6459 12.2918C19.6873 11.7711 20.8357 11.5 22 11.5C23.1643 11.5 24.3127 11.7711 25.3541 12.2918C26.3955 12.8125 27.3014 13.5685 28 14.5" stroke="#7B7B7B" stroke-width="2" stroke-linecap="round" stroke-linejoin="round"/>
</svg>
